<mxfile host="app.diagrams.net" modified="2023-06-28T11:08:33.794Z" agent="Mozilla/5.0 (Windows NT 10.0; Win64; x64) AppleWebKit/537.36 (KHTML, like Gecko) Chrome/109.0.0.0 Safari/537.36" etag="exgyOvzR-a_dqXoiUIwP" version="21.5.0" type="device">
  <diagram id="C5RBs43oDa-KdzZeNtuy" name="Page-1">
    <mxGraphModel dx="1032" dy="521" grid="1" gridSize="10" guides="1" tooltips="1" connect="1" arrows="1" fold="1" page="1" pageScale="1" pageWidth="827" pageHeight="1169" math="0" shadow="0">
      <root>
        <mxCell id="WIyWlLk6GJQsqaUBKTNV-0" />
        <mxCell id="WIyWlLk6GJQsqaUBKTNV-1" parent="WIyWlLk6GJQsqaUBKTNV-0" />
        <mxCell id="WIyWlLk6GJQsqaUBKTNV-7" value="Presenter&lt;br&gt;(Routing)" style="rounded=1;whiteSpace=wrap;html=1;fontSize=12;glass=0;strokeWidth=1;shadow=0;" parent="WIyWlLk6GJQsqaUBKTNV-1" vertex="1">
          <mxGeometry x="414" y="185" width="120" height="70" as="geometry" />
        </mxCell>
        <mxCell id="Hz3KM6PjWrUumEV-Hhuu-2" value="Client" style="rounded=1;whiteSpace=wrap;html=1;fontSize=12;glass=0;strokeWidth=1;shadow=0;" parent="WIyWlLk6GJQsqaUBKTNV-1" vertex="1">
          <mxGeometry x="10" y="190" width="120" height="60" as="geometry" />
        </mxCell>
        <mxCell id="Hz3KM6PjWrUumEV-Hhuu-4" value="" style="endArrow=classic;html=1;rounded=0;entryX=0;entryY=0.75;entryDx=0;entryDy=0;exitX=1;exitY=0.75;exitDx=0;exitDy=0;" parent="WIyWlLk6GJQsqaUBKTNV-1" target="WIyWlLk6GJQsqaUBKTNV-7" edge="1" source="Hz3KM6PjWrUumEV-Hhuu-11">
          <mxGeometry relative="1" as="geometry">
            <mxPoint x="500" y="359.5" as="sourcePoint" />
            <mxPoint x="600" y="359.5" as="targetPoint" />
            <Array as="points" />
          </mxGeometry>
        </mxCell>
        <mxCell id="Hz3KM6PjWrUumEV-Hhuu-5" value="Notifies" style="edgeLabel;resizable=0;html=1;align=center;verticalAlign=middle;" parent="Hz3KM6PjWrUumEV-Hhuu-4" connectable="0" vertex="1">
          <mxGeometry relative="1" as="geometry" />
        </mxCell>
        <mxCell id="Hz3KM6PjWrUumEV-Hhuu-7" value="Model&lt;br&gt;(Networking)" style="rounded=1;whiteSpace=wrap;html=1;fontSize=12;glass=0;strokeWidth=1;shadow=0;" parent="WIyWlLk6GJQsqaUBKTNV-1" vertex="1">
          <mxGeometry x="640" y="185" width="120" height="70" as="geometry" />
        </mxCell>
        <mxCell id="Hz3KM6PjWrUumEV-Hhuu-11" value="View&lt;br&gt;(User events)" style="rounded=1;whiteSpace=wrap;html=1;fontSize=12;glass=0;strokeWidth=1;shadow=0;" parent="WIyWlLk6GJQsqaUBKTNV-1" vertex="1">
          <mxGeometry x="200" y="185" width="120" height="70" as="geometry" />
        </mxCell>
        <mxCell id="Ybl6unQZxWyXDDQ3P7CP-3" value="" style="endArrow=classic;html=1;rounded=0;" edge="1" parent="WIyWlLk6GJQsqaUBKTNV-1" target="Hz3KM6PjWrUumEV-Hhuu-11">
          <mxGeometry relative="1" as="geometry">
            <mxPoint x="130" y="240" as="sourcePoint" />
            <mxPoint x="210" y="330" as="targetPoint" />
            <Array as="points">
              <mxPoint x="200" y="240" />
            </Array>
          </mxGeometry>
        </mxCell>
        <mxCell id="Ybl6unQZxWyXDDQ3P7CP-4" value="Interacts" style="edgeLabel;resizable=0;html=1;align=center;verticalAlign=middle;" connectable="0" vertex="1" parent="Ybl6unQZxWyXDDQ3P7CP-3">
          <mxGeometry relative="1" as="geometry" />
        </mxCell>
        <mxCell id="Ybl6unQZxWyXDDQ3P7CP-8" value="" style="endArrow=classic;html=1;rounded=0;entryX=-0.006;entryY=0.649;entryDx=0;entryDy=0;entryPerimeter=0;exitX=0.967;exitY=0.649;exitDx=0;exitDy=0;exitPerimeter=0;" edge="1" parent="WIyWlLk6GJQsqaUBKTNV-1" source="WIyWlLk6GJQsqaUBKTNV-7" target="Hz3KM6PjWrUumEV-Hhuu-7">
          <mxGeometry relative="1" as="geometry">
            <mxPoint x="550" y="230" as="sourcePoint" />
            <mxPoint x="620" y="230" as="targetPoint" />
            <Array as="points">
              <mxPoint x="580" y="230" />
            </Array>
          </mxGeometry>
        </mxCell>
        <mxCell id="Ybl6unQZxWyXDDQ3P7CP-9" value="Get Data" style="edgeLabel;resizable=0;html=1;align=center;verticalAlign=middle;" connectable="0" vertex="1" parent="Ybl6unQZxWyXDDQ3P7CP-8">
          <mxGeometry relative="1" as="geometry" />
        </mxCell>
        <mxCell id="Ybl6unQZxWyXDDQ3P7CP-13" value="" style="endArrow=classic;html=1;rounded=0;exitX=0.967;exitY=0.649;exitDx=0;exitDy=0;exitPerimeter=0;" edge="1" parent="WIyWlLk6GJQsqaUBKTNV-1">
          <mxGeometry relative="1" as="geometry">
            <mxPoint x="334" y="200" as="sourcePoint" />
            <mxPoint x="314" y="200" as="targetPoint" />
            <Array as="points">
              <mxPoint x="414" y="200" />
            </Array>
          </mxGeometry>
        </mxCell>
        <mxCell id="Ybl6unQZxWyXDDQ3P7CP-14" value="Updates" style="edgeLabel;resizable=0;html=1;align=center;verticalAlign=middle;" connectable="0" vertex="1" parent="Ybl6unQZxWyXDDQ3P7CP-13">
          <mxGeometry relative="1" as="geometry">
            <mxPoint x="-40" as="offset" />
          </mxGeometry>
        </mxCell>
        <mxCell id="Ybl6unQZxWyXDDQ3P7CP-15" value="" style="endArrow=classic;html=1;rounded=0;exitX=0.967;exitY=0.649;exitDx=0;exitDy=0;exitPerimeter=0;" edge="1" parent="WIyWlLk6GJQsqaUBKTNV-1">
          <mxGeometry relative="1" as="geometry">
            <mxPoint x="140" y="210" as="sourcePoint" />
            <mxPoint x="120" y="210" as="targetPoint" />
            <Array as="points">
              <mxPoint x="210" y="210" />
            </Array>
          </mxGeometry>
        </mxCell>
        <mxCell id="Ybl6unQZxWyXDDQ3P7CP-16" value="Displays" style="edgeLabel;resizable=0;html=1;align=center;verticalAlign=middle;" connectable="0" vertex="1" parent="Ybl6unQZxWyXDDQ3P7CP-15">
          <mxGeometry relative="1" as="geometry">
            <mxPoint x="-30" as="offset" />
          </mxGeometry>
        </mxCell>
        <mxCell id="Ybl6unQZxWyXDDQ3P7CP-17" value="" style="endArrow=classic;html=1;rounded=0;entryX=-0.006;entryY=0.649;entryDx=0;entryDy=0;entryPerimeter=0;exitX=0.967;exitY=0.649;exitDx=0;exitDy=0;exitPerimeter=0;" edge="1" parent="WIyWlLk6GJQsqaUBKTNV-1">
          <mxGeometry relative="1" as="geometry">
            <mxPoint x="531" y="200" as="sourcePoint" />
            <mxPoint x="640" y="200" as="targetPoint" />
            <Array as="points">
              <mxPoint x="581" y="200" />
            </Array>
          </mxGeometry>
        </mxCell>
        <mxCell id="Ybl6unQZxWyXDDQ3P7CP-18" value="Updating" style="edgeLabel;resizable=0;html=1;align=center;verticalAlign=middle;" connectable="0" vertex="1" parent="Ybl6unQZxWyXDDQ3P7CP-17">
          <mxGeometry relative="1" as="geometry" />
        </mxCell>
      </root>
    </mxGraphModel>
  </diagram>
</mxfile>
